# xmcd
#
# Track frame offsets: 
#        150
#        12016
#        24157
#        37865
#        48538
#        59941
#        72867
#        84678
#        99403
#        111503
#        125017
#        138237
#        150461
#        164584
#        177122
#        189388
#        201561
#        213823
#        227235
#        238999
#
# Disc length: 3354 seconds
#
# Revision: 1
# Processed by: cddbd v1.5.2PL0 Copyright (c) Steve Scherf et al.
# Submitted via: ExactAudioCopyFreeDBPlugin 1.0
#
DISCID=1b0d1814
DTITLE=Memphis Slim, Tommy McClennan - ABC Of The Blues - Vol. 32 - Me
DTITLE=mphis Slim, McClennan
DYEAR=2010
DGENRE=Blues
TTITLE0=Memphis Slim - Really Got The Blues
TTITLE1=Memphis Slim - Mother Earth
TTITLE2=Memphis Slim - I Guess I'm A Fool
TTITLE3=Memphis Slim - Havin' Fun
TTITLE4=Memphis Slim - Marack
TTITLE5=Memphis Slim - Tia Juana
TTITLE6=Memphis Slim - Reverend Bounce
TTITLE7=Memphis Slim - I'm Crying
TTITLE8=Memphis Slim - Blues For My Baby
TTITLE9=Memphis Slim - Slim's Blues
TTITLE10=Tommy McClennan - Baby, Don't You Want To Go
TTITLE11=Tommy McClennan - You Can't Mistreat Me
TTITLE12=Tommy McClennan - Shake 'Em On Down
TTITLE13=Tommy McClennan - Bottle It Up And Go
TTITLE14=Tommy McClennan - Brown Skin Girl
TTITLE15=Tommy McClennan - I'm Going Don't You Know
TTITLE16=Tommy McClennan - My Baby's Gone
TTITLE17=Tommy McClennan - Whiskey Headed Woman
TTITLE18=Tommy McClennan - It's Hard To Be Lonesome
TTITLE19=Tommy McClennan - Highway 51
EXTD=
EXTT0=
EXTT1=
EXTT2=
EXTT3=
EXTT4=
EXTT5=
EXTT6=
EXTT7=
EXTT8=
EXTT9=
EXTT10=
EXTT11=
EXTT12=
EXTT13=
EXTT14=
EXTT15=
EXTT16=
EXTT17=
EXTT18=
EXTT19=
PLAYORDER=
